<svg xmlns="http://www.w3.org/2000/svg" width="380" height="259" viewBox="0 0 380 259">
  <defs>
    <style>
      .cls-1 {
        fill: none;
        stroke: #000;
        stroke-width: 1px;
      }

      .cls-1, .cls-2 {
        fill-rule: evenodd;
      }
    </style>
  </defs>
  <g id="Artboard_2" data-name="Artboard 2">
    <path id="Shape_2_copy" data-name="Shape 2 copy" class="cls-1" d="M1738.51,1593.04c-2.46,7.11-38.43-5.41-43.51.28-4.79,5.34,13.19,39.14,6.41,43.17-6.11,3.62-28.7-27.72-36.19-25.19-6.76,2.28-4.7,40.92-12.42,42.28-7.09,1.25-18.9-35.67-26.66-35.23-7.24.42-14.4,38.53-22.11,38.24-7.28-.28-11.71-38.83-19.33-39.76-7.26-.89-20.69,35.51-28.19,34.01-7.21-1.43-5.78-40.21-13.13-42.22-7.11-1.94-25.49,32.22-32.68,29.73s-0.56-40.73-7.35-43.6c-7.02-2.97-29.81,28.4-36.37,25.07-6.81-3.46,5.08-40.39-1.19-44.19-6.56-3.99-33.82,23.58-39.71,19.29-6.25-4.54,11.63-38.93,6.2-43.74-5.83-5.15-37.9,16.56-42.7,11.2-5.23-5.85,20.22-34.96,16.32-40.94-4.33-6.62-41.43,4.04-43.99-2.59-2.85-7.37,32.13-22.81,31.67-29.97-0.5-7.62-36.5-20.04-34.05-27.15s38.43,5.41,43.52-.28c4.78-5.34-13.2-39.14-6.41-43.17,6.1-3.62,28.7,27.72,36.18,25.19,6.76-2.28,4.7-40.92,12.42-42.28,7.09-1.25,18.91,35.68,26.66,35.23,7.24-.42,14.4-38.53,22.11-38.23,7.29,0.28,11.71,38.82,19.33,39.76,7.26,0.89,20.7-35.51,28.19-34.02,7.21,1.44,5.78,40.22,13.13,42.23,7.11,1.94,25.5-32.22,32.68-29.73s0.56,40.73,7.35,43.6c7.02,2.97,29.81-28.41,36.37-25.08,6.81,3.47-5.08,40.4,1.19,44.2,6.56,3.98,33.81-23.59,39.72-19.3,6.24,4.54-11.64,38.94-6.2,43.74,5.82,5.16,37.89-16.56,42.69-11.19,5.23,5.84-20.22,34.95-16.32,40.93,4.33,6.62,41.44-4.04,43.99,2.59,2.85,7.37-32.13,22.82-31.66,29.97C1704.96,1573.51,1740.96,1585.93,1738.51,1593.04Z" transform="translate(-1359 -1398)"/>
    <path id="odważne_decyzje_zrównoważone_działania_copy_2" data-name="odważne  decyzje, zrównoważone działania copy 2" class="cls-2" d="M1493.98,1470.52c5.5,1.89,9.99.47,11.4-3.6s-1.26-7.99-6.75-9.89c-5.47-1.89-10-.45-11.4,3.62S1488.51,1468.63,1493.98,1470.52Zm0.44-1.27c-4.65-1.61-6.96-4.82-5.83-8.13s4.94-4.4,9.59-2.8,6.97,4.83,5.83,8.13S1499.07,1470.86,1494.42,1469.25Zm19.98,8.32c3.66,1.27,7.15.83,9.04-1.02l0.02,0.01-1,3.24,1.24,0.43,6.27-18.2-1.37-.47-3.07,8.91-0.02-.01c-0.38-2.63-2.83-5.12-6.49-6.38-5.29-1.83-9.92-.34-11.3,3.65S1509.08,1475.73,1514.4,1477.57Zm0.52-1.24c-4.53-1.56-6.93-4.92-5.83-8.12,1.11-3.23,5.06-4.37,9.59-2.8,4.55,1.57,6.94,4.9,5.82,8.12C1523.4,1476.74,1519.47,1477.9,1514.92,1476.33Zm17.79,7.01,1.81,0.63,9.88-9.2,0.02,0.01,2.21,13.37,1.81,0.63,11.02-10.17-1.49-.52-10.02,9.13-0.02-.01-2.17-13.33-1.84-.64-9.83,9.16-0.03-.01-2.4-13.38-1.51-.53Zm29.85,10.87c3.8,1.32,7.78,1.16,9.62-.4l0.03,0.01-0.21.6a2.785,2.785,0,0,0,1.75,3.66,3.514,3.514,0,0,0,3.21-.36l-0.49-1.17a2.3,2.3,0,0,1-2.1.3,1.582,1.582,0,0,1-.92-2.18l2.02-5.89c1-2.9-1.7-5.78-5.78-7.19-3.71-1.28-7.87-1.08-9.83.41l0.6,1.18c1.72-1.35,5.48-1.44,8.81-.29,3.53,1.22,5.53,3.49,4.9,5.31a0.844,0.844,0,0,1-1.16.54l-7.05-1.83c-5.43-1.43-8.02-.69-8.77,1.48C1556.37,1490.77,1558.33,1492.75,1562.56,1494.21Zm0.47-1.2c-3.51-1.21-4.99-2.64-4.44-4.23,0.5-1.46,2.65-1.8,7.06-.64l7.81,2.03-0.34,1C1572.19,1493.87,1567.9,1494.7,1563.03,1493.01Zm29.11-5.97a1.153,1.153,0,1,0,.75-2.18,1.1,1.1,0,0,0-1.47.71A1.12,1.12,0,0,0,1592.14,1487.04Zm-13.46,12.19,16.11,5.56,0.43-1.26-14.34-4.96,17.4-4.71,0.56-1.64-15.61-5.4-0.45,1.29,13.83,4.78-17.38,4.72Zm31.99-3.48c-3.7-1.28-7.04-.71-8.98,1.51l-0.02-.01,1.12-3.67-1.27-.43-4.3,12.49,1.37,0.47,1.74-5.04c1.43-4.17,5.05-5.7,9.72-4.09,3.68,1.27,5.24,3.87,4.16,7l-2.32,6.72,1.37,0.48,2.36-6.86C1616.95,1500.48,1615.1,1497.28,1610.67,1495.75Zm14.61,20.14c3.73,1.29,7.89,1.25,10.15,0l-0.5-1.28c-1.97,1.12-5.69,1.17-9.07,0-4.43-1.53-7.16-4.75-6.4-7.65l15.73,5.43a4.071,4.071,0,0,0,.24-0.61c1.34-3.87-1.28-7.91-6.25-9.63-5.12-1.77-9.72-.22-11.05,3.65C1616.77,1509.75,1619.76,1513.98,1625.28,1515.89Zm-5.41-10.21c1.19-2.64,4.87-3.57,8.8-2.21,3.88,1.34,6.23,4.27,5.52,7.16Zm-123.32-6.24c3.65,1.26,7.14.83,9.03-1.02l0.02,0.01-1,3.23,1.24,0.43,6.27-18.2-1.37-.47-3.07,8.92-0.02-.01c-0.38-2.63-2.83-5.12-6.49-6.38-5.29-1.83-9.92-.35-11.3,3.65C1488.5,1493.57,1491.23,1497.6,1496.55,1499.44Zm0.51-1.24c-4.53-1.57-6.93-4.93-5.83-8.13,1.11-3.23,5.06-4.36,9.59-2.8,4.55,1.57,6.94,4.9,5.83,8.13C1505.54,1498.6,1501.61,1499.77,1497.06,1498.2Zm20.98,8.66c3.73,1.29,7.89,1.26,10.15.01l-0.5-1.28c-1.98,1.12-5.69,1.17-9.07,0-4.43-1.53-7.16-4.75-6.41-7.66l15.74,5.44a6.435,6.435,0,0,0,.24-0.61c1.33-3.87-1.28-7.92-6.25-9.64-5.13-1.77-9.72-.21-11.06,3.66C1509.52,1500.73,1512.52,1504.96,1518.04,1506.86Zm-5.42-10.2c1.19-2.65,4.88-3.57,8.8-2.21,3.88,1.34,6.24,4.26,5.52,7.16Zm25.02,16.98c4.37,1.51,8.94.7,11.18-1.94l-1.15-.93c-1.82,2.29-5.73,2.99-9.46,1.7-4.28-1.48-6.76-4.86-5.61-8.1,1.12-3.26,4.88-4.49,9.08-3.03,3.11,1.07,5.17,3.25,5.32,5.56l1.43-.04c-0.17-2.81-2.69-5.51-6.45-6.81-4.92-1.7-9.37-.15-10.75,3.84S1532.62,1511.9,1537.64,1513.64Zm17.08,11.73c5.37,1.86,9.78.44,11.27-3.88l3.87-11.25-1.34-.46-1.84,5.33c-1.45,4.2-5.2,5.9-9.28,4.49-3.76-1.29-5.56-4.61-4.28-8.34l2.1-6.08-1.4-.48-2.13,6.18c-1.53,4.45.65,8.39,5.2,9.96,3.23,1.12,6.41.44,8.36-1.75l0.03,0.01-0.66,1.92c-1.22,3.55-4.92,4.66-9.47,3.09-3.53-1.22-6.26-3.64-7.21-5.89l-1.19.73C1547.62,1521.25,1550.76,1524.01,1554.72,1525.37Zm13.17-1.83,16.11,5.56,0.44-1.26-14.35-4.96,17.4-4.71,0.57-1.64-15.62-5.4-0.44,1.29,13.82,4.78-17.37,4.72Zm24.42-8.4a1.157,1.157,0,1,0-.72-1.47A1.118,1.118,0,0,0,1592.31,1515.14Zm-10.48,19.6a3.986,3.986,0,0,0,5.44-2.7l4.86-14.11-1.37-.47-4.83,14.03a2.783,2.783,0,0,1-3.71,1.97,6.105,6.105,0,0,1-2.29-1.43l-0.7,1.15A6.8,6.8,0,0,0,1581.83,1534.74Zm18.11,0.43c3.73,1.28,7.89,1.25,10.15,0l-0.5-1.28c-1.97,1.12-5.69,1.17-9.07,0-4.43-1.53-7.16-4.75-6.4-7.66l15.73,5.44a4.542,4.542,0,0,0,.24-0.61c1.34-3.87-1.28-7.92-6.25-9.63-5.12-1.77-9.72-.22-11.05,3.65C1591.43,1529.03,1594.42,1533.26,1599.94,1535.17Zm-5.41-10.21c1.19-2.65,4.87-3.57,8.8-2.21,3.88,1.34,6.23,4.27,5.52,7.16Zm15.99,16.5c1.55,1.01,3.12.3,3.82-1.73,0.47-1.34.2-2.19-.55-2.44a1.078,1.078,0,0,0-1.43.69,1.107,1.107,0,0,0,1.12,1.5c-0.34,1.41-1.5,2.01-2.51,1.33Zm-192.44-41.66,16.11,5.57,0.44-1.27-14.35-4.95,17.4-4.72,0.57-1.63-15.62-5.4-0.44,1.29,13.82,4.78-17.37,4.72Zm29.66-4.28a5.951,5.951,0,0,0-6.56,1.6l-0.03-.01,0.95-2.98-1.27-.44-4.3,12.49,1.36,0.47,1.96-5.69c1.24-3.6,4.14-5.29,7.32-4.19a3.641,3.641,0,0,1,2.59,4.67l1.38,0.03A4.767,4.767,0,0,0,1447.74,1495.52Zm16.53,3.74,6.26-1.62-0.25-.89-6.21,1.64Zm-5.23,15.25c5.5,1.9,9.99.48,11.4-3.59s-1.26-7.99-6.75-9.89c-5.47-1.89-10-.45-11.4,3.62S1453.57,1512.62,1459.04,1514.51Zm0.44-1.26c-4.65-1.61-6.96-4.83-5.83-8.13s4.94-4.4,9.59-2.8,6.97,4.83,5.83,8.13S1464.13,1514.85,1459.48,1513.25Zm16.45,6.54,1.81,0.63,9.87-9.2,0.03,0.01,2.21,13.37,1.81,0.63,11.02-10.17-1.49-.51-10.02,9.12-0.02-.01-2.17-13.33-1.84-.64-9.83,9.16-0.03-.01-2.4-13.38-1.52-.53Zm38.06-1.38c-3.71-1.28-7.05-.71-8.98,1.51h-0.02l1.12-3.67-1.27-.44-4.3,12.49,1.37,0.47,1.73-5.04c1.44-4.17,5.06-5.7,9.73-4.09,3.68,1.28,5.23,3.87,4.16,7l-2.32,6.73,1.37,0.47,2.36-6.85C1520.26,1523.14,1518.41,1519.94,1513.99,1518.41Zm14.19,19.99c5.49,1.9,9.99.48,11.39-3.59s-1.26-7.99-6.75-9.89c-5.47-1.89-10-.45-11.4,3.62S1522.71,1536.51,1528.18,1538.4Zm0.43-1.26c-4.65-1.61-6.96-4.83-5.82-8.13s4.94-4.4,9.59-2.8,6.96,4.83,5.82,8.13S1533.26,1538.74,1528.61,1537.14Zm16.45,6.54,1.81,0.63,9.88-9.2,0.02,0.01,2.21,13.37,1.82,0.63,11.01-10.17-1.49-.51-10.02,9.12-0.02-.01-2.17-13.33-1.84-.64-9.83,9.16-0.02-.01-2.41-13.38-1.51-.53Zm29.85,10.87c3.81,1.32,7.78,1.16,9.63-.39h0.02l-0.2.6a2.773,2.773,0,0,0,1.74,3.66,3.514,3.514,0,0,0,3.21-.36l-0.49-1.17a2.3,2.3,0,0,1-2.1.3,1.589,1.589,0,0,1-.92-2.18l2.03-5.89c1-2.9-1.71-5.78-5.79-7.19-3.7-1.28-7.86-1.08-9.82.41l0.59,1.18c1.72-1.35,5.48-1.44,8.81-.29,3.53,1.22,5.53,3.49,4.91,5.31a0.848,0.848,0,0,1-1.16.54l-7.05-1.83c-5.44-1.43-8.03-.68-8.77,1.48C1568.72,1551.11,1570.69,1553.09,1574.91,1554.55Zm0.47-1.2c-3.51-1.21-4.99-2.64-4.44-4.23,0.5-1.46,2.65-1.8,7.06-.64l7.82,2.03-0.34,1C1584.54,1554.21,1580.25,1555.04,1575.38,1553.35Zm29.11-5.97a1.126,1.126,0,0,0,1.47-.71A1.159,1.159,0,1,0,1604.49,1547.38Zm-13.46,12.19,16.11,5.56,0.44-1.26-14.35-4.96,17.4-4.71,0.56-1.64-15.61-5.4-0.44,1.3,13.82,4.77-17.37,4.72Zm26.31,9.65c5.5,1.89,9.99.47,11.4-3.6s-1.26-7.99-6.75-9.89c-5.47-1.89-10-.45-11.4,3.62S1611.87,1567.33,1617.34,1569.22Zm0.44-1.27c-4.65-1.61-6.96-4.82-5.83-8.13s4.94-4.4,9.59-2.8,6.97,4.83,5.83,8.13S1622.43,1569.56,1617.78,1567.95Zm25.13-4.99c-3.71-1.28-7.05-.71-8.98,1.51l-0.03-.01,1.13-3.66-1.27-.44-4.3,12.49,1.37,0.47,1.73-5.04c1.44-4.17,5.05-5.7,9.73-4.09,3.68,1.28,5.23,3.87,4.16,7l-2.32,6.73,1.37,0.47,2.36-6.85C1649.18,1567.69,1647.33,1564.49,1642.91,1562.96Zm14.61,20.14c3.73,1.29,7.89,1.25,10.15.01l-0.5-1.29c-1.98,1.12-5.69,1.17-9.07.01-4.43-1.53-7.16-4.76-6.41-7.66l15.74,5.43a5.527,5.527,0,0,0,.24-0.61c1.33-3.87-1.28-7.91-6.25-9.63-5.13-1.77-9.72-.22-11.06,3.65C1649,1576.96,1652,1581.19,1657.52,1583.1Zm-5.42-10.21c1.19-2.64,4.88-3.57,8.8-2.21,3.88,1.34,6.24,4.27,5.52,7.16Zm-179.56-25.68c3.66,1.27,7.15.83,9.03-1.01h0.03l-1,3.24,1.24,0.43,6.27-18.2-1.37-.47-3.07,8.91-0.03-.01c-0.37-2.63-2.82-5.11-6.48-6.38-5.29-1.83-9.92-.34-11.3,3.66C1464.49,1541.35,1467.22,1545.38,1472.54,1547.21Zm0.51-1.24c-4.52-1.56-6.93-4.92-5.82-8.12,1.11-3.23,5.06-4.36,9.59-2.8,4.55,1.57,6.93,4.9,5.82,8.12S1477.6,1547.55,1473.05,1545.97Zm11.13,4.71,16.12,5.57,0.43-1.27-14.34-4.96,17.39-4.71,0.57-1.64-15.62-5.39-0.44,1.29,13.82,4.78-17.37,4.72Zm24.4-8.4a1.159,1.159,0,1,0,.76-2.19A1.159,1.159,0,0,0,1508.58,1542.28Zm-5.85,14.81,1.37,0.47,4.3-12.49-1.37-.47Zm10.53,4.19c3.8,1.32,7.78,1.16,9.62-.39h0.03l-0.21.6a2.785,2.785,0,0,0,1.75,3.66,3.514,3.514,0,0,0,3.21-.36l-0.49-1.17a2.321,2.321,0,0,1-2.11.3,1.584,1.584,0,0,1-.91-2.18l2.02-5.88c1-2.91-1.71-5.79-5.78-7.2-3.71-1.28-7.87-1.08-9.83.41l0.6,1.18c1.72-1.35,5.48-1.44,8.81-.29,3.53,1.22,5.53,3.49,4.9,5.31a0.844,0.844,0,0,1-1.16.54l-7.05-1.82c-5.43-1.44-8.02-.69-8.77,1.47C1507.07,1557.84,1509.03,1559.82,1513.26,1561.28Zm0.47-1.2c-3.51-1.21-4.99-2.64-4.45-4.23,0.51-1.46,2.66-1.8,7.07-.64l7.81,2.03-0.34,1C1522.89,1560.94,1518.6,1561.77,1513.73,1560.08Zm28.45-3.78-0.18-.86-5.27,1.23,2.53-7.32-1.37-.48-2.82,8.2-5.75,1.34,0.16,0.9,5.25-1.25-3.11,9.01,1.37,0.48,3.4-9.89Zm2.31,15.77c3.8,1.32,7.78,1.17,9.62-.39l0.03,0.01-0.21.59a2.78,2.78,0,0,0,1.74,3.66,3.5,3.5,0,0,0,3.22-.36l-0.49-1.17a2.3,2.3,0,0,1-2.11.3,1.6,1.6,0,0,1-.92-2.18l2.03-5.88c1-2.91-1.71-5.79-5.78-7.2-3.71-1.28-7.87-1.08-9.83.41l0.6,1.18c1.72-1.35,5.47-1.44,8.81-.29,3.53,1.22,5.53,3.5,4.9,5.31a0.844,0.844,0,0,1-1.16.54l-7.05-1.82c-5.43-1.44-8.03-.69-8.77,1.47C1538.3,1568.63,1540.26,1570.61,1544.49,1572.07Zm0.47-1.19c-3.51-1.22-4.99-2.65-4.45-4.23,0.51-1.47,2.66-1.81,7.07-.65l7.81,2.04-0.34.99C1554.12,1571.74,1549.83,1572.56,1544.96,1570.88Zm29.21-3.63c-3.7-1.28-7.04-.71-8.97,1.51l-0.03-.01,1.13-3.67-1.27-.44-4.3,12.49,1.36,0.47,1.74-5.04c1.44-4.17,5.05-5.7,9.73-4.08,3.68,1.27,5.23,3.86,4.15,6.99l-2.31,6.73,1.36,0.47,2.36-6.85C1580.45,1571.97,1578.6,1568.78,1574.17,1567.25Zm11.78,1.76a1.155,1.155,0,1,0,.76-2.18A1.154,1.154,0,1,0,1585.95,1569.01Zm-5.85,14.82,1.37,0.47,4.3-12.49-1.37-.47Zm10.53,4.19c3.8,1.31,7.78,1.16,9.62-.4l0.03,0.01-0.21.6a2.788,2.788,0,0,0,1.75,3.66,3.485,3.485,0,0,0,3.21-.37l-0.49-1.17a2.272,2.272,0,0,1-2.1.3,1.568,1.568,0,0,1-.92-2.17l2.02-5.89c1-2.9-1.71-5.78-5.78-7.19-3.71-1.28-7.87-1.08-9.83.41l0.6,1.18c1.72-1.35,5.48-1.44,8.81-.29,3.53,1.22,5.53,3.49,4.9,5.3a0.855,0.855,0,0,1-1.16.55l-7.05-1.83c-5.43-1.43-8.02-.69-8.77,1.47C1584.44,1584.58,1586.4,1586.56,1590.63,1588.02Zm0.47-1.2c-3.51-1.21-4.99-2.64-4.44-4.23,0.5-1.46,2.65-1.81,7.06-.64l7.81,2.03-0.34.99C1600.26,1587.68,1595.97,1588.5,1591.1,1586.82Z" transform="translate(-1359 -1398)"/>
  </g>
</svg>
