<svg xmlns="http://www.w3.org/2000/svg" width="479" height="96" viewBox="0 0 479 96">
  <defs>
    <style>
      .cls-1 {
        fill: none;
        stroke: #000;
        stroke-width: 1px;
      }

      .cls-1, .cls-2 {
        fill-rule: evenodd;
      }
    </style>
  </defs>
  <g id="Artboard_7" data-name="Artboard 7">
    <path class="cls-1" d="M560.741,1312.84c0,17.62-7.293,31.4-45.614,38.71-36.52,7.67-105.814,8.78-193.459,9.13-87.644-.35-156.937-1.46-193.456-9.13-38.321-7.31-45.612-21.09-45.614-38.71s7.288-31.4,45.61-38.71c36.522-7.67,105.818-8.78,193.46-9.12,87.645,0.34,156.94,1.45,193.462,9.12C553.451,1281.44,560.742,1295.22,560.741,1312.84Z" transform="translate(-82 -1265)"/>
    <path id="balance" class="cls-2" d="M147.171,1332.32H175.83c9.435,0,15.272-4.43,15.272-11.44,0-5.13-3.243-8.97-8.491-10.03v-0.06a9.084,9.084,0,0,0,7.312-9.08c0-6.66-5.248-10.85-13.681-10.85H147.171v41.46Zm3.479-23.06v-15.27h25.357c6.486,0,10.437,2.89,10.437,7.66,0,4.72-3.951,7.61-10.378,7.61H150.65Zm0,19.93v-16.86h24.885c7.548,0,12.088,3.18,12.088,8.43s-4.54,8.43-12.088,8.43H150.65Zm43.361,3.13h3.715l5.661-10.44h29.778l5.72,10.44h3.656l-22.172-41.46H216.3Zm11.027-13.57,13.208-24.88h0.118l13.209,24.88H205.038Zm43.413,13.57h31.725v-3.13H251.93v-38.33h-3.479v41.46Zm36.409,0h3.715l5.661-10.44h29.778l5.72,10.44h3.656l-22.172-41.46H307.15Zm11.027-13.57,13.209-24.88h0.118l13.208,24.88H295.887Zm43.413,13.57h3.479V1294.4h0.059l35.145,37.92H382.7v-41.46h-3.48v37.98h-0.059l-35.144-37.98H339.3v41.46Zm79.361,1.47c12.678,0,22.82-6.55,26.064-16.92l-3.244-1.12c-2.771,9.08-11.675,14.91-22.82,14.91-14.565,0-23.823-7.43-23.823-19.04,0-11.68,8.491-19.05,21.936-19.05,9.729,0,17.631,4.84,20.344,12.5l3.125-1.29c-3.3-8.79-12.442-14.39-23.469-14.39-15.568,0-25.415,8.67-25.415,22.23S401.973,1333.79,418.661,1333.79Zm33.217-1.47H492.33v-3.13H455.3v-16.81h34.083v-3.12H455.3v-15.21H491.74v-3.19H451.878v41.46Z" transform="translate(-82 -1265)"/>
  </g>
</svg>
