<svg xmlns="http://www.w3.org/2000/svg" width="449" height="97" viewBox="0 0 449 97">
  <defs>
    <style>
      .cls-1 {
        fill: none;
        stroke: #000;
        stroke-width: 1px;
      }

      .cls-1, .cls-2 {
        fill-rule: evenodd;
      }
    </style>
  </defs>
  <g id="Artboard_5" data-name="Artboard 5">
    <path class="cls-1" d="M544.811,1129.65c0,17.61-6.841,31.4-42.792,38.71-34.26,7.67-99.265,8.78-181.484,9.13-82.222-.35-147.229-1.46-181.489-9.13-35.949-7.31-42.789-21.1-42.791-38.71s6.837-31.4,42.79-38.71c34.261-7.67,99.269-8.78,181.49-9.13,82.218,0.35,147.226,1.46,181.487,9.13C537.974,1098.25,544.812,1112.04,544.811,1129.65Z" transform="translate(-96 -1081)"/>
    <path id="radical" class="cls-2" d="M213.53,1149.82a6.928,6.928,0,0,0,5.9-3.42l-1.945-2.06c-0.944,1.59-2.123,2.42-3.539,2.42-2.063,0-3.007-1.6-3.773-3.66l-2.359-6.07c-1.121-2.95-2.536-5.37-5.012-6.73v-0.06c7.842-.47,12.972-4.95,12.972-11.32,0-7.01-5.955-11.73-14.624-11.73h-29.6v41.45h3.479v-17.69h21.7c3.892,0,6.074,2.66,7.489,6.31l2.653,6.78C208.105,1147.35,209.992,1149.82,213.53,1149.82Zm-38.565-22.05v-17.4h25.946c6.663,0,11.321,3.54,11.321,8.73,0,5.13-4.658,8.67-11.321,8.67H174.965Zm48.75,20.87h3.715l5.661-10.43H262.87l5.719,10.43h3.656l-22.171-41.45h-4.069Zm11.027-13.56,13.209-24.88h0.118l13.208,24.88H234.742Zm43.413,13.56h23.293c15.567,0,24.176-7.37,24.176-20.7s-8.609-20.75-24.176-20.75H278.155v41.45Zm3.479-3.12v-35.15h19.814c13.267,0,20.7,6.25,20.7,17.57,0,11.27-7.43,17.58-20.7,17.58H281.634Zm52.648,3.12h3.479v-41.45h-3.479v41.45Zm39.371,1.48c12.678,0,22.821-6.55,26.064-16.93l-3.243-1.12c-2.772,9.08-11.676,14.92-22.821,14.92-14.565,0-23.823-7.43-23.823-19.05,0-11.67,8.492-19.04,21.936-19.04,9.73,0,17.632,4.83,20.344,12.5l3.125-1.3c-3.3-8.78-12.442-14.39-23.469-14.39-15.567,0-25.415,8.67-25.415,22.23S356.965,1150.12,373.653,1150.12Zm27.674-1.48h3.715l5.661-10.43h29.779l5.72,10.43h3.656l-22.172-41.45h-4.069Zm11.027-13.56,13.209-24.88h0.118l13.209,24.88H412.354Zm43.414,13.56h31.725v-3.12H459.247v-38.33h-3.479v41.45Z" transform="translate(-96 -1081)"/>
  </g>
</svg>
