<?xml version="1.0" encoding="utf-8"?>
<!-- Generator: Adobe Illustrator 24.3.0, SVG Export Plug-In . SVG Version: 6.00 Build 0)  -->
<svg version="1.1" id="Layer_1" xmlns="http://www.w3.org/2000/svg" xmlns:xlink="http://www.w3.org/1999/xlink" x="0px" y="0px"
	 viewBox="0 0 1366 768" style="enable-background:new 0 0 1366 768;" xml:space="preserve">
<style type="text/css">
	.st0{fill:none;stroke:#000000;stroke-miterlimit:10;}
</style>
<path class="st0" d="M538.11,297.31c0.91,6.04-29.71,10.62-31.23,16.63c-1.43,5.64,24.25,23.13,20.89,28.58
	c-3.03,4.91-31.11-9.08-35.55-4.43c-4.01,4.19,12.04,31.17,6.99,35.06c-4.63,3.57-27.06-18.49-32.48-15.24
	c-5.05,3.03,4.16,33.11-1.51,35.8c-5.35,2.55-23.06-23.47-28.9-21.26c-5.57,2.1-1.52,33.32-7.48,35.07
	c-5.73,1.69-19.32-26.7-25.37-25.37c-5.85,1.29-6.21,32.77-12.32,33.69c-6.11,0.92-15.76-29.04-21.73-28.54
	c-6.17,0.52-10.76,31.65-16.74,31.74c-6.21,0.09-11.57-30.93-17.52-31.29c-6.23-0.38-15.46,29.7-21.33,28.85
	c-6.21-0.9-6.3-32.36-12.02-33.76c-6.14-1.5-21.04,26.2-26.52,24.15c-5.97-2.23,1.39-32.74-3.68-35.56
	c-5.61-3.12-28.31,18.54-32.65,14.74c-4.83-4.22,14.54-28.51,11.51-33.48c-3.23-5.29-33.83-0.61-34.74-6.65
	c-0.91-6.04,29.71-10.62,31.23-16.63c1.43-5.64-24.25-23.13-20.89-28.58c3.03-4.91,31.11,9.08,35.55,4.44
	c4.01-4.19-12.04-31.17-6.99-35.06c4.63-3.57,27.06,18.49,32.48,15.24c5.05-3.03-4.16-33.11,1.51-35.8
	c5.35-2.55,23.06,23.47,28.9,21.26c5.57-2.1,1.52-33.32,7.48-35.07c5.73-1.69,19.32,26.7,25.37,25.37
	c5.85-1.29,6.21-32.77,12.32-33.69c6.11-0.92,15.76,29.04,21.73,28.54c6.17-0.52,10.76-31.65,16.73-31.74
	c6.21-0.09,11.57,30.93,17.52,31.29c6.23,0.38,15.46-29.7,21.32-28.85c6.21,0.9,6.3,32.36,12.02,33.76
	c6.14,1.5,21.04-26.2,26.52-24.16c5.97,2.22-1.39,32.74,3.68,35.56c5.61,3.12,28.31-18.54,32.65-14.75
	c4.83,4.22-14.54,28.51-11.51,33.48C506.59,295.95,537.2,291.28,538.11,297.31z"/>
<g>
	<path class="st0" d="M396.18,230.87c-61.36-59.57-128.65-115.75-147.04-97.78c-17.92,17.51,23.92,80.11,71.33,129.57"/>
	<path class="st0" d="M287.46,250.96c-60.82-39.29-132.48-80.04-146.45-64.07c-15.72,17.97,39.48,70.02,92.76,113.52"/>
	<path class="st0" d="M514.28,341.48c-1.1,4.81-2.09,9.58-2.96,14.28c-4.39-6.34-9.02-12.55-13.82-18.49"/>
	<path class="st0" d="M524.43,305.28c-2.52,7.55-4.78,15.12-6.78,22.61"/>
	<path class="st0" d="M590.75,527.09c54.94-57.79,34.15-204.47,24.97-264.39c62.15-59.74,67.44-115.12,15.19-96.47
		c-46.2,16.49-81.53,70.64-102.53,127.77"/>
	<path class="st0" d="M246.96,329.42C246.96,329.42,246.96,329.42,246.96,329.42c-59.88-28.24-137.56-59.71-157.94-43.94
		c-34.84,26.95,194.85,142.86,194.85,142.86S128,359.53,106.78,382.46c-22.14,23.93,53.23,70.75,165.4,104.07
		c2.38,20.65,86.24,103.81,151.51,117.92"/>
</g>
<g>
	<path d="M278.64,338.17l-1.08-7.79l1.55-0.22l1.06,7.65c0.49,3.56,3.27,5.3,7.45,4.72c5.31-0.74,8.05-3.99,7.39-8.74l-0.79-5.73
		l1.55-0.22l1.97,14.2l-1.44,0.2l-0.71-4.1l-0.03,0c-0.78,3.1-3.73,5.29-7.93,5.88C282.6,344.72,279.25,342.54,278.64,338.17z"/>
	<path d="M300.29,334.47c-0.63-4.55,2.92-8.23,8.51-9.01c4.26-0.59,8.02,0.79,9.57,3.42l-1.37,0.74c-1.28-2.15-4.34-3.26-7.87-2.77
		c-4.77,0.66-7.8,3.7-7.29,7.4c0.48,3.7,4.54,5.76,9.39,5.09c4.24-0.59,7.67-3.19,8.31-6.3l1.57,0.33
		c-0.88,3.66-4.89,6.69-9.86,7.38C305.56,341.54,300.92,338.99,300.29,334.47z"/>
	<path d="M323.22,336.65l14.47-13.11l-15.7,2.17l-0.2-1.47l17.73-2.46l0.26,1.86l-14.5,13.12l16.29-2.26l0.2,1.44l-18.29,2.53
		L323.22,336.65z"/>
	<path d="M342.54,328.62c-0.63-4.55,2.92-8.23,8.51-9.01c4.26-0.59,8.02,0.79,9.57,3.42l-1.37,0.74c-1.28-2.15-4.34-3.25-7.86-2.77
		c-4.77,0.66-7.8,3.7-7.29,7.4c0.49,3.7,4.54,5.76,9.4,5.09c4.23-0.59,7.67-3.19,8.31-6.3l1.57,0.33c-0.87,3.66-4.89,6.69-9.85,7.38
		C347.81,335.69,343.17,333.14,342.54,328.62z"/>
	<path d="M364.18,314.14c-0.1-0.73,0.34-1.31,1.07-1.41c0.76-0.11,1.34,0.33,1.44,1.07c0.1,0.73-0.34,1.31-1.1,1.42
		C364.86,315.31,364.29,314.87,364.18,314.14z M365.24,318.22l1.55-0.22l1.97,14.2l-1.55,0.22L365.24,318.22z"/>
	<path d="M369.57,317.62l1.72-0.24l8.88,11.78l0.03,0l5.01-13.7l2.09-0.29l8.63,11.84l0.03,0l5.2-13.76l1.69-0.23l-5.66,15.26
		l-2.06,0.29l-8.69-11.86l-0.03,0l-5.03,13.76l-2.06,0.29L369.57,317.62z"/>
	<path d="M405.13,319.95c-0.64-4.63,3.03-8.25,9.24-9.11c6.24-0.86,10.73,1.62,11.37,6.25c0.64,4.63-3.01,8.21-9.25,9.08
		C410.28,327.03,405.77,324.58,405.13,319.95z M424.19,317.31c-0.52-3.76-4.33-5.73-9.61-5c-5.28,0.73-8.41,3.67-7.89,7.42
		c0.52,3.75,4.33,5.73,9.61,5C421.57,324,424.71,321.06,424.19,317.31z"/>
	<path d="M428.97,318.95l1.26-0.87c1.05,2.59,4.68,4.07,9.06,3.46c3.56-0.49,6.1-2.08,5.83-3.83c-0.2-1.41-1.97-1.94-5.26-1.86
		L436.1,316c-3.72,0.11-6.1-0.59-6.41-2.85c-0.34-2.66,2.28-4.75,6.2-5.29c3.47-0.48,6.88,0.66,8.28,2.68l-1.13,0.99
		c-1.19-1.71-4.02-2.67-6.96-2.26c-2.99,0.41-5.06,1.91-4.86,3.55c0.19,1.36,1.74,1.74,4.84,1.69l3.84-0.13
		c3.93-0.08,6.41,0.55,6.75,3.01c0.41,2.76-2.65,4.97-7.11,5.59C434.54,323.67,430.21,321.94,428.97,318.95z M435.08,305.09
		l5.2-4.63l0.68,0.74l-5.26,4.64L435.08,305.09z"/>
	<path d="M449.19,313.84c-0.63-4.55,2.92-8.23,8.51-9.01c4.26-0.59,8.02,0.79,9.57,3.42l-1.37,0.74c-1.28-2.15-4.34-3.26-7.87-2.77
		c-4.77,0.66-7.8,3.7-7.29,7.4c0.48,3.7,4.54,5.76,9.4,5.09c4.23-0.59,7.67-3.19,8.31-6.3l1.57,0.33c-0.87,3.66-4.89,6.69-9.86,7.38
		C454.46,320.91,449.82,318.36,449.19,313.84z M456.66,302.1l5.2-4.63l0.68,0.74l-5.26,4.64L456.66,302.1z"/>
</g>
</svg>
