<?xml version="1.0" encoding="utf-8"?>
<!-- Generator: Adobe Illustrator 24.3.0, SVG Export Plug-In . SVG Version: 6.00 Build 0)  -->
<svg version="1.1" id="Layer_1" xmlns="http://www.w3.org/2000/svg" xmlns:xlink="http://www.w3.org/1999/xlink" x="0px" y="0px"
	 viewBox="0 0 625.45 134.51" style="enable-background:new 0 0 625.45 134.51;" xml:space="preserve">
<g>
	<path d="M244.59,38c-27.9,0.11-52.01,0.42-64.49,3.06c-5.9,1.13-9.87,2.79-12.15,5.06c-1.84,1.84-2.66,4.13-2.66,7.43
		c0,3.3,0.82,5.59,2.66,7.43c2.28,2.28,6.25,3.93,12.14,5.06c12.49,2.64,36.6,2.95,64.51,3.06c27.9-0.11,52.01-0.42,64.49-3.06
		c5.9-1.13,9.87-2.79,12.15-5.06c1.84-1.84,2.66-4.13,2.66-7.43c0-3.3-0.82-5.59-2.66-7.43c-2.28-2.28-6.25-3.93-12.14-5.06
		C296.61,38.42,272.49,38.12,244.59,38 M244.59,70.18c-27.97-0.11-52.14-0.42-64.72-3.08c-6.1-1.17-10.25-2.92-12.68-5.35
		c-2.06-2.05-2.97-4.58-2.97-8.18c0-3.61,0.92-6.13,2.97-8.18c2.43-2.43,6.58-4.18,12.69-5.35c12.57-2.66,36.74-2.97,64.7-3.08
		c27.97,0.11,52.14,0.42,64.72,3.08c6.1,1.17,10.25,2.92,12.68,5.35c2.06,2.05,2.97,4.58,2.97,8.18c0,3.61-0.92,6.13-2.97,8.18
		c-2.43,2.43-6.58,4.18-12.69,5.35C296.73,69.76,272.56,70.06,244.59,70.18"/>
	<g>
		<polygon points="185.93,45.88 187.85,45.88 195.78,59.51 195.8,59.51 203.73,45.88 205.65,45.88 205.65,60.71 204.41,60.71 
			204.41,47.19 204.37,47.19 196.5,60.71 195.07,60.71 187.22,47.19 187.18,47.19 187.18,60.71 185.93,60.71 		"/>
		<rect x="209.87" y="45.88" width="1.24" height="14.83"/>
		<polygon points="215.33,45.88 217.02,45.88 229.59,59.46 229.61,59.46 229.61,45.88 230.86,45.88 230.86,60.71 229.17,60.71 
			216.6,47.15 216.58,47.15 216.58,60.71 215.33,60.71 		"/>
		<rect x="235.07" y="45.88" width="1.24" height="14.83"/>
		<polygon points="240.54,45.88 242.45,45.88 250.39,59.51 250.41,59.51 258.34,45.88 260.26,45.88 260.26,60.71 259.01,60.71 
			259.01,47.19 258.97,47.19 251.1,60.71 249.67,60.71 241.82,47.19 241.78,47.19 241.78,60.71 240.54,60.71 		"/>
		<path d="M263.96,54.26v-8.37h1.24v8.37c0,3.78,2.57,5.82,6.71,5.82c4.13,0,6.69-2.05,6.69-5.82v-8.37h1.24v8.37
			c0,4.45-3.06,6.98-7.93,6.98C267.02,61.24,263.96,58.71,263.96,54.26"/>
		<polygon points="283.53,45.88 285.45,45.88 293.38,59.51 293.4,59.51 301.33,45.88 303.25,45.88 303.25,60.71 302.01,60.71 
			302.01,47.19 301.96,47.19 294.1,60.71 292.66,60.71 284.82,47.19 284.77,47.19 284.77,60.71 283.53,60.71 		"/>
	</g>
</g>
<g>
	<path d="M392.56,38c-23.8,0.11-44.37,0.42-55,3.05c-5.01,1.13-8.39,2.78-10.32,5.04c-1.57,1.84-2.28,4.15-2.28,7.46
		c0,3.32,0.7,5.62,2.28,7.46c1.93,2.26,5.3,3.91,10.31,5.04c10.65,2.64,31.22,2.94,55.02,3.06c23.8-0.11,44.37-0.42,55-3.05
		c5.01-1.13,8.39-2.78,10.32-5.04c1.57-1.84,2.28-4.15,2.28-7.46c0-3.32-0.7-5.62-2.28-7.46c-1.93-2.26-5.3-3.91-10.31-5.04
		C436.93,38.42,416.36,38.12,392.56,38 M392.56,70.18c-23.88-0.11-44.51-0.42-55.26-3.09c-5.22-1.17-8.78-2.94-10.87-5.38
		c-1.75-2.05-2.53-4.56-2.53-8.15c0-3.59,0.78-6.1,2.53-8.15c2.09-2.44,5.65-4.21,10.88-5.38c10.74-2.66,31.37-2.97,55.25-3.08
		c23.88,0.11,44.51,0.42,55.26,3.08c5.22,1.18,8.78,2.94,10.87,5.38c1.75,2.05,2.53,4.56,2.53,8.15s-0.78,6.1-2.53,8.15
		c-2.09,2.44-5.65,4.21-10.88,5.38C437.07,69.75,416.44,70.06,392.56,70.18"/>
	<g>
		<path d="M343.19,56.46l1.05-0.63c0.7,2.72,3.9,4.54,7.93,4.54c3.52,0,5.82-1.33,5.82-3.25c0-1.5-1.35-2.4-4.51-2.91l-4.24-0.7
			c-3.35-0.53-4.79-1.56-4.79-3.59c0-2.64,2.55-4.3,6.29-4.3c3.27,0,6.03,1.39,7.11,3.46l-0.99,0.7c-0.95-1.79-3.31-3.02-6.12-3.02
			c-3.02,0-5.04,1.24-5.04,3.1c0,1.33,1.12,2.09,3.78,2.49l4.18,0.67c3.9,0.61,5.59,1.81,5.59,3.97c0,2.74-2.83,4.51-7.11,4.51
			C347.64,61.5,344.14,59.48,343.19,56.46"/>
		<polygon points="366.35,47.28 359.13,47.28 359.13,46.15 374.82,46.15 374.82,47.28 367.59,47.28 367.59,60.97 366.35,60.97 		"/>
		<path d="M376.66,54.52v-8.37h1.24v8.37c0,3.78,2.57,5.82,6.71,5.82c4.13,0,6.69-2.05,6.69-5.82v-8.37h1.24v8.37
			c0,4.45-3.06,6.98-7.93,6.98C379.72,61.5,376.66,58.97,376.66,54.52"/>
		<path d="M404.57,59.86c4.75,0,7.4-2.26,7.4-6.29c0-4.05-2.66-6.29-7.4-6.29h-7.09v12.57H404.57z M396.24,46.15h8.33
			c5.57,0,8.65,2.66,8.65,7.42s-3.08,7.4-8.65,7.4h-8.33V46.15z"/>
		<rect x="416.24" y="46.15" width="1.24" height="14.83"/>
		<path d="M439.13,53.57c0-4.05-3.54-6.81-8.77-6.81c-5.23,0-8.77,2.76-8.77,6.81s3.54,6.81,8.77,6.81
			C435.59,60.38,439.13,57.62,439.13,53.57 M420.34,53.57c0-4.72,4.05-7.95,10.02-7.95c5.99,0,10.02,3.23,10.02,7.95
			s-4.03,7.93-10.02,7.93C424.39,61.5,420.34,58.29,420.34,53.57"/>
	</g>
</g>
</svg>
